<?xml version="1.0" encoding="utf-8"?>
<!-- Generator: Adobe Illustrator 19.0.0, SVG Export Plug-In . SVG Version: 6.00 Build 0)  -->
<svg version="1.1" id="Layer_1" xmlns="http://www.w3.org/2000/svg" xmlns:xlink="http://www.w3.org/1999/xlink" x="0px" y="0px"
	 viewBox="-349 260 380 90" style="enable-background:new -349 260 380 90;" xml:space="preserve">
<style type="text/css">
	.st0{fill:#FFFFFF;}
	.st1{font-family:'AdvancedArchitecture';}
	.st2{font-size:75px;}
	.st3{fill:#9BBCAB;}
	.st4{fill:#EBD1A0;}
	.st5{fill:#E64B60;}
	.st6{opacity:0.7;fill:#1D788B;enable-background:new    ;}
	.st7{opacity:0.4;fill:#1D788B;enable-background:new    ;}
	.st8{opacity:0.2;fill:#1D788B;enable-background:new    ;}
	.st9{fill:#1D788B;}
</style>
<text transform="matrix(1 0 0 1 -275.6779 329.9514)" class="st0 st1 st2">PIXELart</text>
<g id="Layer_2">
	<rect x="-311.2" y="280.4" class="st3" width="26.1" height="26.1"/>
	<rect x="-311.2" y="308.4" class="st4" width="26.1" height="26.1"/>
	<rect x="-339.1" y="308.4" class="st5" width="26.1" height="26.1"/>
	<rect x="-326.8" y="277.8" class="st6" width="6.3" height="6.3"/>
	<rect x="-335" y="276.5" class="st7" width="6.3" height="6.3"/>
	<rect x="-335" y="284.6" class="st7" width="6.3" height="6.3"/>
	<rect x="-344" y="275.5" class="st8" width="6.3" height="6.3"/>
	<rect x="-326.8" y="292.6" class="st6" width="6.3" height="6.3"/>
	<rect x="-334.4" y="292.6" class="st6" width="6.3" height="6.3"/>
	<rect x="-342" y="292.6" class="st6" width="6.3" height="6.3"/>
	<rect x="-319.3" y="286.5" class="st9" width="6.3" height="6.3"/>
	<rect x="-343.1" y="284.6" class="st7" width="6.3" height="6.3"/>
	<rect x="-326.8" y="285.2" class="st6" width="6.3" height="6.3"/>
	<rect x="-319.3" y="279.5" class="st9" width="6.3" height="6.3"/>
	<rect x="-319.3" y="293.1" class="st9" width="6.3" height="6.3"/>
	<rect x="-333.1" y="300.1" class="st9" width="6.3" height="6.3"/>
	<rect x="-326.2" y="300.1" class="st9" width="6.3" height="6.3"/>
	<rect x="-340.1" y="300.1" class="st9" width="6.3" height="6.3"/>
	<rect x="-319.3" y="300.1" class="st9" width="6.3" height="6.3"/>
</g>
</svg>
