<?xml version="1.0" encoding="utf-8"?>
<!-- Generator: Adobe Illustrator 19.0.0, SVG Export Plug-In . SVG Version: 6.00 Build 0)  -->
<svg version="1.1" id="Layer_1" xmlns="http://www.w3.org/2000/svg" xmlns:xlink="http://www.w3.org/1999/xlink" x="0px" y="0px"
	 viewBox="-349 260 380 90" style="enable-background:new -349 260 380 90;" xml:space="preserve">
<style type="text/css">
	.st0{enable-background:new    ;}
	.st1{fill:#FFFFFF;}
	.st2{fill:#9BBCAB;}
	.st3{fill:#EBD1A0;}
	.st4{fill:#E64B60;}
	.st5{opacity:0.7;fill:#1D788B;enable-background:new    ;}
	.st6{opacity:0.4;fill:#1D788B;enable-background:new    ;}
	.st7{opacity:0.2;fill:#1D788B;enable-background:new    ;}
	.st8{fill:#1D788B;}
</style>
<g class="st0">
	<path class="st1" d="M-258.4,342h-6.3c-0.2,0-0.3-0.1-0.3-0.3v-61.8c0-0.2,0.1-0.3,0.3-0.3h6.3c0.2,0,0.3,0.1,0.3,0.3v3.7
		c3.4-2.7,7.2-4,11.5-4h18.3c5,0,8.3,2.7,9.9,8.1c0.1,1,0.1,1.8,0.1,2.4v28.6c0,5-2.4,8.3-7.1,10c-0.7,0.3-1.8,0.4-3.2,0.4h-17.7
		c-4.5,0-8.4-1.3-11.8-4v16.6C-258.1,341.9-258.2,342-258.4,342z M-225.2,318.8V290c0-1.9-0.9-3.1-2.7-3.4h-18.8
		c-5,0-8.6,2.6-10.7,7.8c-0.4,1.2-0.6,2.6-0.6,4V310c0,5.9,2.7,9.8,8,11.6c1,0.4,2.2,0.6,3.5,0.6h18.4
		C-226.4,322.2-225.4,321.1-225.2,318.8z"/>
	<path class="st1" d="M-210.7,268.9h6.3c0.2,0,0.3,0.1,0.3,0.3v7.4c0,0.2-0.1,0.3-0.3,0.3h-6.3c-0.2,0-0.3-0.1-0.3-0.3v-7.4
		C-210.9,269-210.8,268.9-210.7,268.9z M-210.7,280.8h6.3c0.2,0,0.3,0.1,0.3,0.3v48c0,0.2-0.1,0.3-0.3,0.3h-6.3
		c-0.2,0-0.3-0.1-0.3-0.3v-48C-210.9,280.9-210.8,280.8-210.7,280.8z"/>
	<path class="st1" d="M-198.3,278.8h7.7l13.3,16.6c8.1-10.3,12.5-15.9,13.3-16.6h7.8v0.3c-10.6,13.7-16.3,21-16.9,21.9
		c12,17.4,18.3,26.7,19.1,28.1h-8c-1.2-1.4-5.6-8-13.4-19.7c-1.2-1.8-1.9-2.8-2.1-2.8c0,0.2-5,7.8-14.9,22.5h-8v-0.1l18.8-28
		l-17.1-22.1L-198.3,278.8z"/>
	<path class="st1" d="M-139.4,279.5h29.2c5.4,0,8.8,2.8,10.2,8.4c0.1,0.8,0.1,1.6,0.1,2.5v13.4c0,0.2-0.1,0.3-0.3,0.3h-42.3v15.2
		c0.3,1.9,1.2,2.8,2.8,2.8h35.2c0.2,0,0.3,0.1,0.3,0.3v6.3c0,0.2-0.1,0.3-0.3,0.3h-35c-4.6,0-7.8-2.5-9.6-7.4
		c-0.2-0.7-0.3-1.4-0.3-2.1v-30.6c0-4.2,2.5-7.2,7.4-9.1C-141.1,279.6-140.2,279.5-139.4,279.5z M-142.5,297h35.6v-7.2
		c-0.2-2.3-1.2-3.4-2.9-3.4h-29.5c-2.2,0.2-3.2,1.1-3.2,2.7V297z"/>
	<path class="st1" d="M-92.3,267.8h6.3c0.2,0,0.3,0.1,0.3,0.3V329c0,0.2-0.1,0.3-0.3,0.3h-6.3c-0.2,0-0.3-0.1-0.3-0.3v-60.9
		C-92.6,267.9-92.5,267.8-92.3,267.8z"/>
	<path class="st1" d="M-44.3,279.4c7.3,3.8,10.9,9.4,10.9,16.8v24.6c-0.2,0.7-0.3,1.1-0.3,1.2c-2,4.8-5.1,7.2-9.3,7.2h-18.7
		c-6.1,0-11.1-2.6-15-7.8c-2.3-2.7-3.4-7.2-3.4-13.5v-9.3c0-0.2,0.1-0.3,0.3-0.3h39.5v-1.9c0-1.4-0.1-2.5-0.4-3.2
		c-2-5.5-5.6-8.2-10.8-8.2h-18.8c-1.8,0.3-2.7,1.2-2.7,2.7v1c0,0.2-0.1,0.3-0.3,0.3h-6.5l-0.3-0.1c0-1.6,0.2-2.9,0.6-4
		c1.8-4.5,4.9-6.8,9.3-6.8h18.7C-49.1,278-46.7,278.4-44.3,279.4z M-73,305.2v6.5c0,0.6,0.1,1.5,0.4,2.8c2.2,5.2,5.9,7.8,11,7.8
		h18.4c1.5,0,2.5-0.9,2.8-2.8v-14.3H-73z"/>
	<path class="st1" d="M-28.7,277.8h6.3c0.2,0,0.3,0.1,0.3,0.3v3.5c3.6-2.6,7.1-3.8,10.7-3.8h9.7c4,0,6.9,2.4,9,7.1l0.3,1.9l-0.3,0.1
		H0.9c-0.9-1.5-1.8-2.2-2.7-2.2H-11c-5.1,0-8.7,2.8-10.8,8.5c-0.2,1.2-0.3,2.1-0.3,2.8v32.7c0,0.2-0.1,0.3-0.3,0.3h-6.3
		c-0.2,0-0.3-0.1-0.3-0.3v-50.7C-29,277.9-28.9,277.8-28.7,277.8z"/>
	<path class="st1" d="M13.6,266.1h6.3c0.2,0,0.3,0.1,0.3,0.3v7.1h6.9c0.2,0,0.3,0.1,0.3,0.3v5.2c0,0.2-0.1,0.3-0.3,0.3h-6.9V320
		c0,1.4,1.1,2.3,3.2,2.5h1.2c0.2,0,0.3,0.1,0.3,0.3v6.3c0,0.2-0.1,0.3-0.3,0.3h-1.3c-4.8,0-8.1-2.6-9.9-7.7
		c-0.1-0.7-0.1-1.2-0.1-1.6v-40.6c0-0.2-0.1-0.3-0.3-0.3H9.1c-0.2,0-0.3-0.1-0.3-0.3v-5.2c0-0.2,0.1-0.3,0.3-0.3h4.2v-7.1
		C13.3,266.2,13.4,266.1,13.6,266.1z"/>
</g>
<g id="Layer_2">
	<rect x="-304.2" y="279.6" class="st2" width="26.1" height="26.1"/>
	<rect x="-304.2" y="307.6" class="st3" width="26.1" height="26.1"/>
	<rect x="-332.1" y="307.6" class="st4" width="26.1" height="26.1"/>
	<rect x="-319.8" y="277" class="st5" width="6.3" height="6.3"/>
	<rect x="-328" y="275.8" class="st6" width="6.3" height="6.3"/>
	<rect x="-328" y="283.9" class="st6" width="6.3" height="6.3"/>
	<rect x="-337" y="274.8" class="st7" width="6.3" height="6.3"/>
	<rect x="-319.8" y="291.9" class="st5" width="6.3" height="6.3"/>
	<rect x="-327.4" y="291.9" class="st5" width="6.3" height="6.3"/>
	<rect x="-335" y="291.9" class="st5" width="6.3" height="6.3"/>
	<rect x="-312.3" y="285.7" class="st8" width="6.3" height="6.3"/>
	<rect x="-336.1" y="283.9" class="st6" width="6.3" height="6.3"/>
	<rect x="-319.8" y="284.5" class="st5" width="6.3" height="6.3"/>
	<rect x="-312.3" y="278.7" class="st8" width="6.3" height="6.3"/>
	<rect x="-312.3" y="292.4" class="st8" width="6.3" height="6.3"/>
	<rect x="-326.1" y="299.4" class="st8" width="6.3" height="6.3"/>
	<rect x="-319.2" y="299.4" class="st8" width="6.3" height="6.3"/>
	<rect x="-333.1" y="299.4" class="st8" width="6.3" height="6.3"/>
	<rect x="-312.3" y="299.4" class="st8" width="6.3" height="6.3"/>
</g>
</svg>
